<?xml version="1.0" encoding="utf-8"?>
<!-- Generator: Adobe Illustrator 16.0.0, SVG Export Plug-In . SVG Version: 6.00 Build 0)  -->
<!DOCTYPE svg PUBLIC "-//W3C//DTD SVG 1.1//EN" "http://www.w3.org/Graphics/SVG/1.1/DTD/svg11.dtd">
<svg version="1.1" id="svg" xmlns="http://www.w3.org/2000/svg" xmlns:xlink="http://www.w3.org/1999/xlink" x="0px" y="0px"
	 width="1190.55px" height="841.891px" viewBox="0 0 1190.55 841.891" enable-background="new 0 0 1190.55 841.891"
	 xml:space="preserve">
<g>
	<g>
		<path fill="#FFFFFF" d="M631.709,632.472h-63.324c-4.368,0-7.916-3.553-7.916-7.916c0-4.364,3.548-7.916,7.916-7.916h63.324
			c4.368,0,7.916,3.552,7.916,7.916C639.625,628.919,636.078,632.472,631.709,632.472z M639.625,600.809h-7.916h-63.324h-7.916
			c-4.368,0-7.916-3.553-7.916-7.916s3.548-7.916,7.916-7.916h79.156c4.367,0,7.915,3.553,7.915,7.916
			S643.993,600.809,639.625,600.809z M647.541,569.146h-7.915H560.47h-7.916c-4.368,0-7.916-3.553-7.916-7.916
			s3.548-7.916,7.916-7.916h94.987c4.368,0,7.916,3.553,7.916,7.916S651.909,569.146,647.541,569.146z M703.838,429.146
			c-1.291,1.373-2.024,3.131-2.141,4.939c-25.316,38.431-27.272,48.858-31.81,72.973c-0.811,4.313-1.716,9.109-2.866,14.668
			c-1.902,9.275-9.624,15.756-18.77,15.756h-0.712h-14.315l20.953-118.733h9.194c13.094,0,23.747-10.652,23.747-23.747V363.34
			h23.746c4.375,0,7.915-3.544,7.915-7.916v-39.578c0-13.095-10.651-23.747-23.747-23.747v-23.747
			c0-13.095-10.651-23.747-23.746-23.747h-7.915c0-13.094-10.652-23.747-23.747-23.747h-23.747c-4.375,0-7.916,3.544-7.916,7.915
			v182.06c0,4.372,3.541,7.915,7.916,7.915h22.23l-20.951,118.733h-34.219l-20.952-118.733h22.23c4.375,0,7.916-3.543,7.916-7.915
			v-182.06c0-4.371-3.541-7.915-7.916-7.915H560.47c-13.095,0-23.747,10.652-23.747,23.747h-7.916
			c-13.094,0-23.747,10.652-23.747,23.747V292.1c-13.094,0-23.747,10.652-23.747,23.747v55.409c0,4.371,3.541,7.915,7.916,7.915
			h23.747v15.832c0,13.095,10.653,23.747,23.747,23.747h9.193l20.953,118.733h-14.315h-0.711c-9.145,0-16.867-6.48-18.769-15.776
			c-1.152-5.538-2.056-10.334-2.867-14.647c-4.538-24.114-6.494-34.542-31.809-72.973c-0.116-1.809-0.85-3.566-2.141-4.939
			c-24.953-26.429-38.689-61.042-38.689-97.469c0-78.564,63.921-142.481,142.48-142.481c78.562,0,142.482,63.917,142.482,142.481
			C742.529,368.105,728.792,402.717,703.838,429.146z M655.457,307.931v-23.747c0-4.372-3.54-7.916-7.916-7.916h-23.747V236.69
			h15.832c4.367,0,7.915,3.552,7.915,7.916v7.916c0,4.372,3.54,7.916,7.916,7.916h15.831c4.368,0,7.916,3.552,7.916,7.916v31.663
			c0,4.371,3.54,7.915,7.916,7.915h7.914c4.368,0,7.916,3.553,7.916,7.916v31.662h-23.746h-31.663c-4.375,0-7.915,3.544-7.915,7.916
			v15.832h15.831v-7.916h15.831v31.662c0,4.364-3.548,7.916-7.915,7.916h-39.579V292.1h15.832v15.831H655.457z M520.892,331.678
			c-4.376,0-7.916,3.544-7.916,7.916v23.747h-15.831v-47.494c0-4.363,3.548-7.916,7.916-7.916h7.916
			c4.375,0,7.916-3.544,7.916-7.915v-31.663c0-4.364,3.548-7.916,7.915-7.916h7.916v15.832h15.831v-23.747v-7.916
			c0-4.364,3.548-7.916,7.916-7.916H576.3v166.228h-39.578c-4.368,0-7.916-3.552-7.916-7.916v-23.747v-23.747h15.832v-15.831
			H520.892z"/>
	</g>
</g>
<polyline fill="none" stroke="#FFFFFF" stroke-width="8" stroke-miterlimit="10" points="318.439,422.445 382.439,422.445 
	412.439,358.445 430.439,422.445 452.439,422.445 468.439,482.445 488.439,420.445 "/>
<polyline fill="none" stroke="#FFFFFF" stroke-width="8" stroke-miterlimit="10" points="698.112,430.945 762.112,430.945 
	792.112,366.946 810.112,430.945 832.112,430.945 848.112,490.945 868.112,428.945 "/>
<circle fill="none" stroke="#FFFFFF" stroke-width="8" stroke-miterlimit="10" cx="595.275" cy="405.089" r="372.945"/>
</svg>
