<?xml version="1.0" encoding="utf-8"?>
<!-- Generator: Adobe Illustrator 16.0.0, SVG Export Plug-In . SVG Version: 6.00 Build 0)  -->
<!DOCTYPE svg PUBLIC "-//W3C//DTD SVG 1.1//EN" "http://www.w3.org/Graphics/SVG/1.1/DTD/svg11.dtd">
<svg version="1.1" id="svg" xmlns="http://www.w3.org/2000/svg" xmlns:xlink="http://www.w3.org/1999/xlink" x="0px" y="0px"
	 width="301px" height="313px" viewBox="46.31 56.405 301 313" enable-background="new 46.31 56.405 301 313" xml:space="preserve">
<ellipse fill="none" stroke="#000000" stroke-width="8" stroke-miterlimit="10" cx="196.331" cy="214.905" rx="134.66" ry="146.143"/>
<polyline fill="none" stroke="#000000" stroke-width="5" stroke-miterlimit="10" points="260.206,170.738 241.965,170.738 
	251.085,210.981 215.907,170.738 168.426,170.738 149.896,221.404 141.211,171.027 133.683,171.027 133.683,109.069 
	141.211,109.069 260.206,109.069 260.206,170.738 "/>
<ellipse fill="none" stroke="#000000" stroke-width="5" stroke-miterlimit="10" cx="196.944" cy="139.179" rx="41.836" ry="19.978"/>
<ellipse fill="none" stroke="#000000" stroke-width="5" stroke-miterlimit="10" cx="196.53" cy="139.099" rx="18.84" ry="18.115"/>
<circle cx="196.531" cy="139.179" r="9.913"/>
<circle fill="none" stroke="#000000" stroke-width="8" stroke-miterlimit="10" cx="146.311" cy="253.757" r="18.819"/>
<circle fill="none" stroke="#000000" stroke-width="8" stroke-miterlimit="10" cx="257.59" cy="244.567" r="18.819"/>
<path fill="none" stroke="#000000" stroke-width="8" stroke-miterlimit="10" d="M133.683,270.044c0,0-18.53,3.476-28.374,30.979
	h72.381c0,0-5.604-26.111-19.595-32.599"/>
<path fill="none" stroke="#000000" stroke-width="8" stroke-miterlimit="10" d="M246.351,261.531c0,0-18.53,3.476-28.374,30.979
	h72.382c0,0-5.605-26.111-19.596-32.599"/>
</svg>
