<?xml version="1.0" encoding="utf-8"?>
<!-- Generator: Adobe Illustrator 16.0.0, SVG Export Plug-In . SVG Version: 6.00 Build 0)  -->
<!DOCTYPE svg PUBLIC "-//W3C//DTD SVG 1.1//EN" "http://www.w3.org/Graphics/SVG/1.1/DTD/svg11.dtd">
<svg version="1.1" id="svg" xmlns="http://www.w3.org/2000/svg" xmlns:xlink="http://www.w3.org/1999/xlink" x="0px" y="0px"
	 width="301px" height="313px" viewBox="46.31 56.405 301 313" enable-background="new 46.31 56.405 301 313" xml:space="preserve">
<polyline fill="none" stroke="#000000" stroke-width="8" stroke-miterlimit="10" points="77.421,212.788 104.872,212.788 
	117.74,185.336 125.461,212.788 134.898,212.788 141.76,238.524 150.339,211.929 "/>
<polyline fill="none" stroke="#000000" stroke-width="8" stroke-miterlimit="10" points="240.274,217.292 267.726,217.292 
	280.593,189.84 288.315,217.292 297.751,217.292 304.614,243.028 313.192,216.434 "/>
<path fill="none" stroke="#000000" stroke-width="5" stroke-miterlimit="10" d="M209.927,296.198h-24.051
	c-1.659,0-3.006-1.294-3.006-2.883s1.347-2.883,3.006-2.883h24.051c1.658,0,3.006,1.294,3.006,2.883
	S211.585,296.198,209.927,296.198z M212.933,284.664h-3.006h-24.051h-3.006c-1.659,0-3.007-1.294-3.007-2.884
	c0-1.589,1.348-2.883,3.007-2.883h30.063c1.66,0,3.007,1.294,3.007,2.883C215.939,283.37,214.593,284.664,212.933,284.664z
	 M215.939,273.131h-3.005h-30.065h-3.007c-1.659,0-3.006-1.296-3.006-2.884c0-1.591,1.348-2.883,3.006-2.883h36.077
	c1.659,0,3.007,1.292,3.007,2.883C218.946,271.835,217.599,273.131,215.939,273.131z M237.321,222.131
	c-0.491,0.5-0.769,1.14-0.813,1.799c-9.615,13.999-10.357,17.797-12.081,26.582c-0.309,1.571-0.651,3.317-1.089,5.344
	c-0.722,3.378-3.656,5.74-7.129,5.74h-0.271h-5.435l7.957-43.253h3.491c4.975,0,9.021-3.879,9.021-8.649v-11.535h9.018
	c1.662,0,3.006-1.291,3.006-2.883v-14.417c0-4.771-4.045-8.65-9.017-8.65v-8.651c0-4.77-4.048-8.651-9.021-8.651h-3.007
	c0-4.77-4.045-8.65-9.019-8.65h-9.02c-1.662,0-3.006,1.291-3.006,2.882v66.322c0,1.593,1.344,2.883,3.006,2.883h8.443l-7.957,43.251
	h-12.997l-7.957-43.251h8.442c1.661,0,3.007-1.29,3.007-2.883v-66.322c0-1.591-1.346-2.882-3.007-2.882h-9.019
	c-4.974,0-9.019,3.88-9.019,8.65h-3.007c-4.973,0-9.019,3.881-9.019,8.651v8.651c-4.974,0-9.02,3.88-9.02,8.65v20.185
	c0,1.592,1.345,2.883,3.006,2.883h9.02v5.768c0,4.771,4.046,8.649,9.02,8.649h3.492l7.958,43.253h-5.438h-0.27
	c-3.473,0-6.407-2.361-7.129-5.746c-0.438-2.019-0.781-3.765-1.089-5.338c-1.723-8.783-2.466-12.581-12.08-26.581
	c-0.045-0.658-0.323-1.299-0.814-1.799c-9.477-9.628-14.693-22.237-14.693-35.506c0-28.62,24.277-51.903,54.114-51.903
	c29.838,0,54.116,23.283,54.116,51.903C252.016,199.895,246.798,212.503,237.321,222.131z M218.946,177.975v-8.65
	c0-1.592-1.345-2.883-3.007-2.883h-9.019v-14.417h6.014c1.658,0,3.005,1.294,3.005,2.884v2.883c0,1.593,1.344,2.884,3.007,2.884
	h6.013c1.658,0,3.005,1.294,3.005,2.884v11.534c0,1.593,1.347,2.883,3.008,2.883h3.007c1.658,0,3.005,1.295,3.005,2.884v11.534
	h-9.02h-12.024c-1.662,0-3.005,1.29-3.005,2.884v5.767h6.012v-2.883h6.013v11.534c0,1.589-1.348,2.884-3.006,2.884h-15.032v-40.369
	h6.014v5.766H218.946z M167.837,186.625c-1.663,0-3.006,1.291-3.006,2.884v8.651h-6.013v-17.301c0-1.589,1.348-2.884,3.007-2.884
	h3.006c1.661,0,3.006-1.291,3.006-2.883v-11.533c0-1.59,1.348-2.884,3.006-2.884h3.007v5.767h6.012v-8.65v-2.883
	c0-1.59,1.348-2.884,3.007-2.884h6.012v60.553H173.85c-1.659,0-3.006-1.294-3.006-2.883v-8.651v-8.651h6.013v-5.767L167.837,186.625
	L167.837,186.625z"/>
<ellipse fill="none" stroke="#000000" stroke-width="8" stroke-miterlimit="10" cx="196.331" cy="214.905" rx="134.66" ry="146.143"/>
</svg>
