<?xml version="1.0" encoding="utf-8"?>
<!-- Generator: Adobe Illustrator 16.0.0, SVG Export Plug-In . SVG Version: 6.00 Build 0)  -->
<!DOCTYPE svg PUBLIC "-//W3C//DTD SVG 1.1//EN" "http://www.w3.org/Graphics/SVG/1.1/DTD/svg11.dtd">
<svg version="1.1" id="svg" xmlns="http://www.w3.org/2000/svg" xmlns:xlink="http://www.w3.org/1999/xlink" x="0px" y="0px"
	 width="301px" height="313px" viewBox="46.31 56.405 301 313" enable-background="new 46.31 56.405 301 313" xml:space="preserve">
<ellipse fill="none" stroke="#000000" stroke-width="8" stroke-miterlimit="10" cx="196.331" cy="214.905" rx="134.66" ry="146.143"/>
<g>
	<g>
		<path fill="none" stroke="#000000" stroke-width="5" stroke-miterlimit="10" d="M243.701,175.115h-24.002v-4.671
			c0-1.292-1.042-2.335-2.334-2.335s-2.335,1.043-2.335,2.335v4.671h-24c-3.429,0-6.212,2.782-6.212,6.21v8.15l-3.229-1.094
			c-0.845-0.298-8.348-2.932-15.304-3.279l-0.944,1.838h-0.05l2.634,20.323l-3.081,5.417l-3.081-5.417l2.583-20.323h-0.049
			l-0.944-1.838c-7.205,0.348-15.006,3.18-15.354,3.279c-0.149,0.049-0.199,0.149-0.348,0.199c-0.248,0.1-0.497,0.249-0.696,0.447
			c-0.199,0.149-0.348,0.298-0.497,0.497c-0.149,0.199-0.298,0.397-0.447,0.596c-0.149,0.249-0.248,0.448-0.298,0.696
			c-0.05,0.149-0.149,0.249-0.149,0.397l-6.162,27.925c-0.447,2.088,0.845,4.174,2.932,4.621c0.298,0.051,0.547,0.1,0.844,0.1
			c1.789,0,3.379-1.242,3.777-3.03l5.714-25.739c0.397-0.1,0.844-0.249,1.342-0.397v26.435l-3.081,38.311
			c-0.199,2.533,1.689,4.818,4.273,5.019c0.149,0,0.249,0,0.397,0c2.385,0,4.422-1.838,4.621-4.273l2.782-34.634
			c0.597,0.248,1.192,0.397,1.889,0.397c0.646,0,1.292-0.149,1.888-0.397l2.783,34.634c0.199,2.436,2.236,4.273,4.621,4.273
			c0.149,0,0.249,0,0.398,0c2.583-0.2,4.472-2.436,4.273-5.019l-3.081-38.311v-26.435c1.987,0.546,3.279,1.043,3.329,1.043h0.05
			h0.049l5.614,1.938v20.87c0,3.428,2.783,6.211,6.212,6.211h11.279l-9.889,36.92c-0.347,1.241,0.397,2.533,1.64,2.83
			c0.199,0.05,0.398,0.101,0.596,0.101c1.043,0,1.989-0.695,2.236-1.74l10.236-38.11h7.901v27.03c0,1.291,1.043,2.336,2.335,2.336
			s2.334-1.045,2.334-2.336v-27.03h7.901l10.235,38.11c0.3,1.045,1.243,1.74,2.236,1.74c0.199,0,0.398,0,0.597-0.101
			c1.242-0.347,1.988-1.589,1.64-2.83l-9.887-36.92h11.279c3.429,0,6.211-2.783,6.211-6.211v-37.218
			C249.861,177.897,247.079,175.115,243.701,175.115z M246.78,218.494c0,1.689-1.391,3.08-3.079,3.08H191.03
			c-1.689,0-3.081-1.391-3.081-3.08v-19.826l9.789,3.279c0.399,0.149,0.844,0.199,1.242,0.199c1.641,0,3.131-1.043,3.676-2.634
			c0.102-0.249,0.052-0.546,0.102-0.845l23.304-10.783c0.397-0.199,0.546-0.646,0.397-1.043c-0.199-0.397-0.646-0.547-1.043-0.397
			l-22.809,10.534c-0.346-1.094-1.191-2.038-2.385-2.436l-12.272-4.074v-9.144c0-1.689,1.392-3.08,3.081-3.08h52.671
			c1.688,0,3.079,1.391,3.079,3.08V218.494L246.78,218.494L246.78,218.494z"/>
		<path fill="none" stroke="#000000" stroke-width="5" stroke-miterlimit="10" d="M164.894,184.308
			c5.416,0,9.789-6.261,9.789-11.677c0-5.417-4.373-9.789-9.789-9.789c-5.417,0-9.789,4.373-9.789,9.789
			C155.104,178.046,159.477,184.308,164.894,184.308z"/>
	</g>
</g>
</svg>
