<?xml version="1.0" encoding="utf-8"?>
<!-- Generator: Adobe Illustrator 16.0.0, SVG Export Plug-In . SVG Version: 6.00 Build 0)  -->
<!DOCTYPE svg PUBLIC "-//W3C//DTD SVG 1.1//EN" "http://www.w3.org/Graphics/SVG/1.1/DTD/svg11.dtd">
<svg version="1.1" id="svg" xmlns="http://www.w3.org/2000/svg" xmlns:xlink="http://www.w3.org/1999/xlink" x="0px" y="0px"
	 width="301px" height="313px" viewBox="0 0 301 313" enable-background="new 0 0 301 313" xml:space="preserve">
<ellipse fill="none" stroke="#000000" stroke-width="8" stroke-miterlimit="10" cx="150.5" cy="156.5" rx="134.66" ry="146.143"/>
<polygon fill="none" stroke="#000000" stroke-width="8" stroke-miterlimit="10" points="80.864,87.235 90.979,107.731 
	113.599,111.018 97.231,126.972 101.095,149.5 80.864,138.864 60.633,149.5 64.497,126.972 48.129,111.018 70.749,107.731 "/>
<polygon fill="none" stroke="#000000" stroke-width="8" stroke-miterlimit="10" points="216.973,87.235 227.088,107.731 
	249.708,111.018 233.34,126.972 237.204,149.5 216.973,138.864 196.742,149.5 200.605,126.972 184.238,111.018 206.857,107.731 "/>
<polygon fill="none" stroke="#000000" stroke-width="8" stroke-miterlimit="10" points="148.919,75.109 159.034,95.606 
	181.653,98.893 165.286,114.847 169.15,137.375 148.919,126.739 128.687,137.375 132.552,114.847 116.184,98.893 138.803,95.606 "/>
<circle fill="none" stroke="#000000" stroke-width="8" stroke-miterlimit="10" cx="148.446" cy="191.977" r="21.629"/>
<path fill="none" stroke="#000000" stroke-width="8" stroke-miterlimit="10" d="M137.737,209.887c0,0-32.717,14.967-37.792,47.113
	h97c0,0-9.906-32.227-34.953-47.113"/>
</svg>
