<?xml version="1.0" encoding="utf-8"?>
<!-- Generator: Adobe Illustrator 16.0.0, SVG Export Plug-In . SVG Version: 6.00 Build 0)  -->
<!DOCTYPE svg PUBLIC "-//W3C//DTD SVG 1.1//EN" "http://www.w3.org/Graphics/SVG/1.1/DTD/svg11.dtd">
<svg version="1.1" id="svg" xmlns="http://www.w3.org/2000/svg" xmlns:xlink="http://www.w3.org/1999/xlink" x="0px" y="0px"
	 width="301px" height="313px" viewBox="46.31 56.405 301 313" enable-background="new 46.31 56.405 301 313" xml:space="preserve">
<ellipse fill="none" stroke="#000000" stroke-width="8" stroke-miterlimit="10" cx="196.331" cy="214.905" rx="134.66" ry="146.143"/>
<path fill="none" stroke="#000000" stroke-width="3" stroke-miterlimit="10" d="M261.815,217.088c1.207,0,2.184-0.975,2.184-2.183
	v-52.387c0-1.208-0.977-2.183-2.184-2.183h-15.5c0.146-0.714,0.221-1.447,0.221-2.183c0-6.018-4.896-10.914-10.914-10.914
	s-10.914,4.896-10.914,10.914c0,0.735,0.074,1.469,0.221,2.183h-15.5c-1.208,0-2.184,0.975-2.184,2.183v16.192
	c-1.361-0.593-2.846-0.912-4.365-0.912c-6.018,0-10.914,4.896-10.914,10.914s4.896,10.914,10.914,10.914
	c1.52,0,3.004-0.318,4.365-0.912v16.192c0,1.208,0.976,2.183,2.184,2.183h10.914v21.828c0,0.233,0.039,0.467,0.112,0.689
	l1.655,4.967l-5.162,3.441c-0.736,0.492-1.104,1.377-0.93,2.243l2.183,10.915c0.067,0.34,0.218,0.663,0.434,0.937l8.257,10.315
	v10.147h4.365v-10.913c0-0.498-0.169-0.976-0.479-1.365l-8.4-10.498l-1.79-8.959l2.953-1.971l1.279,3.837l4.138-1.382l-4.249-12.758
	V210.54c0-1.204,0.979-2.183,2.184-2.183c1.203,0,2.182,0.979,2.182,2.183v24.011c0,0.959,0.629,1.81,1.55,2.089
	c0.919,0.279,1.916-0.079,2.45-0.878l3.717-5.577h2.029l3.717,5.577c0.407,0.607,1.088,0.972,1.816,0.972h3.197l3.719,5.577
	c0.405,0.606,1.086,0.971,1.815,0.971h3.198l3.351,5.027v11.671l-8.253,10.316c-0.311,0.387-0.479,0.864-0.479,1.362v10.913h4.365
	v-10.147l8.253-10.315c0.31-0.39,0.479-0.867,0.479-1.364v-13.098c0-0.429-0.13-0.854-0.367-1.211l-4.366-6.549
	c-0.406-0.606-1.087-0.971-1.815-0.971h-3.198l-3.718-5.578c-0.406-0.605-1.086-0.971-1.816-0.971h-3.196l-3.718-5.577
	c-0.406-0.606-1.088-0.972-1.816-0.972h-4.365c-0.729,0-1.41,0.365-1.816,0.972l-0.367,0.55v-10.252H261.815z M226.892,203.992
	c-3.61,0-6.549,2.938-6.549,6.548v2.183h-8.731v-18.235c0-0.908-0.563-1.72-1.41-2.043c-0.845-0.314-1.808-0.083-2.41,0.598
	c-1.241,1.41-3.032,2.218-4.911,2.218c-3.61,0-6.548-2.938-6.548-6.548s2.938-6.548,6.548-6.548c1.879,0,3.67,0.808,4.911,2.218
	c0.601,0.681,1.561,0.919,2.41,0.598c0.847-0.32,1.41-1.133,1.41-2.043v-18.235h16.447c0.779,0,1.501-0.417,1.89-1.093
	c0.39-0.677,0.392-1.508-0.002-2.186c-0.568-0.984-0.873-2.117-0.873-3.27c0-3.61,2.938-6.548,6.549-6.548
	c3.609,0,6.548,2.938,6.548,6.548c0,1.152-0.304,2.285-0.873,3.27c-0.394,0.677-0.394,1.508-0.002,2.186
	c0.39,0.676,1.108,1.093,1.89,1.093h16.448v48.021h-26.194v-2.183C233.438,206.93,230.501,203.992,226.892,203.992z"/>
<path fill="none" stroke="#000000" stroke-width="3" stroke-miterlimit="10" d="M130.848,217.088h16.192
	c-0.594,1.362-0.912,2.848-0.912,4.365c0,6.018,4.896,10.914,10.914,10.914s10.914-4.896,10.914-10.914
	c0-1.518-0.318-3.003-0.912-4.365h16.192c1.208,0,2.183-0.975,2.183-2.183v-20.418c0-0.908-0.563-1.72-1.41-2.043
	c-0.848-0.314-1.808-0.083-2.41,0.598c-1.242,1.41-3.032,2.218-4.911,2.218c-3.61,0-6.548-2.938-6.548-6.548
	s2.938-6.548,6.548-6.548c1.879,0,3.669,0.808,4.911,2.218c0.598,0.681,1.563,0.919,2.41,0.598c0.847-0.32,1.41-1.133,1.41-2.043
	v-20.418c0-1.208-0.976-2.183-2.183-2.183h-52.387c-1.207,0-2.183,0.975-2.183,2.183v52.387
	C128.665,216.114,129.641,217.088,130.848,217.088z M133.031,164.702h48.021v14.009c-1.362-0.593-2.847-0.912-4.365-0.912
	c-6.018,0-10.914,4.896-10.914,10.914s4.896,10.914,10.914,10.914c1.519,0,3.003-0.318,4.365-0.912v14.009h-18.235
	c-0.908,0-1.72,0.563-2.043,1.41c-0.319,0.852-0.083,1.81,0.598,2.41c1.41,1.241,2.218,3.031,2.218,4.91
	c0,3.61-2.938,6.549-6.549,6.549c-3.61,0-6.548-2.938-6.548-6.549c0-1.879,0.808-3.669,2.218-4.91
	c0.681-0.599,0.918-1.559,0.598-2.41c-0.321-0.848-1.133-1.41-2.043-1.41h-18.235V164.702z"/>
<path fill="none" stroke="#000000" stroke-width="3" stroke-miterlimit="10" d="M189.783,254.196c-1.519,0-3.003,0.318-4.365,0.912
	v-16.191c0-1.207-0.976-2.183-2.183-2.183h-20.418c-0.908,0-1.72,0.563-2.043,1.41c-0.319,0.851-0.083,1.81,0.598,2.409
	c1.41,1.242,2.218,3.033,2.218,4.912c0,3.609-2.938,6.548-6.549,6.548c-3.61,0-6.548-2.938-6.548-6.548
	c0-1.879,0.808-3.67,2.218-4.912c0.681-0.598,0.918-1.559,0.598-2.409c-0.321-0.848-1.133-1.41-2.043-1.41h-20.418
	c-1.207,0-2.183,0.976-2.183,2.183v43.655h4.366v-41.473h14.009c-0.594,1.362-0.912,2.847-0.912,4.366
	c0,6.018,4.896,10.914,10.914,10.914s10.914-4.896,10.914-10.914c0-1.52-0.318-3.004-0.912-4.366h14.009v18.235
	c0,0.908,0.563,1.721,1.41,2.043c0.845,0.318,1.808,0.086,2.41-0.598c1.241-1.41,3.032-2.219,4.911-2.219
	c3.61,0,6.548,2.939,6.548,6.549s-2.938,6.549-6.548,6.549c-1.879,0-3.67-0.809-4.911-2.219c-0.598-0.681-1.559-0.914-2.41-0.598
	c-0.847,0.32-1.41,1.133-1.41,2.043v11.687h4.366v-7.46c1.362,0.594,2.846,0.912,4.365,0.912c6.018,0,10.914-4.896,10.914-10.914
	S195.801,254.196,189.783,254.196z"/>
<path fill="none" stroke="#000000" stroke-width="3" stroke-miterlimit="10" d="M250.901,208.357h4.365V171.25
	c0-1.208-0.975-2.183-2.183-2.183h-37.107v4.365h34.925V208.357z"/>
<path fill="none" stroke="#000000" stroke-width="3" stroke-miterlimit="10" d="M176.687,169.067h-37.107
	c-1.208,0-2.183,0.975-2.183,2.183v37.107h4.366v-34.925h34.925V169.067z"/>
<path fill="none" stroke="#000000" stroke-width="3" stroke-miterlimit="10" d="M137.396,245.465h4.366v37.106h-4.366V245.465z"/>
</svg>
