<svg height="511pt" viewBox="-4 1 511 511.99994" width="511pt" xmlns="http://www.w3.org/2000/svg"><path d="m216.078125 458.105469h71.859375v53.894531h-71.859375zm0 0"/><path d="m189.132812 440.140625h8.980469v-35.929687h-35.929687c0 15.691406 13.070312 35.929687 26.949218 35.929687zm0 0"/><path d="m216.078125 404.210938h71.859375v35.929687h-71.859375zm0 0"/><path d="m449.621094 80.84375v-26.949219h35.929687c4.960938 0 8.984375-4.019531 8.984375-8.980469 0-4.960937-4.023437-8.984374-8.984375-8.984374h-8.980469v-8.980469c0-14.882813-12.066406-26.949219-26.949218-26.949219h-17.964844c-14.878906 0-26.945312 12.066406-26.945312 26.949219v8.980469h-8.984376c-4.960937 0-8.980468 4.023437-8.980468 8.984374 0 4.960938 4.019531 8.980469 8.980468 8.980469h35.929688v26.949219h-107.789062v-26.949219h35.929687c4.960937 0 8.984375-4.019531 8.984375-8.980469 0-4.960937-4.023438-8.984374-8.984375-8.984374h-8.980469v-8.980469c0-14.882813-12.066406-26.949219-26.949218-26.949219h-17.964844c-14.882813 0-26.945313 12.066406-26.945313 26.949219v8.980469h-8.984375c-4.960937 0-8.980468 4.023437-8.980468 8.984374 0 4.960938 4.019531 8.980469 8.980468 8.980469h35.929688v26.949219h-107.789063v-26.949219h35.929688c4.960937 0 8.984375-4.019531 8.984375-8.980469 0-4.960937-4.023438-8.984374-8.984375-8.984374h-8.980469v-8.980469c0-14.882813-12.066406-26.949219-26.949219-26.949219h-17.964843c-14.882813 0-26.945313 12.066406-26.945313 26.949219v8.980469h-8.984375c-4.960938 0-8.980469 4.023437-8.980469 8.984374 0 4.960938 4.019531 8.980469 8.980469 8.980469h35.929688v26.949219h-107.789063v-26.949219h35.929687c4.960938 0 8.984376-4.019531 8.984376-8.980469 0-4.960937-4.023438-8.984374-8.984376-8.984374h-8.980468v-8.980469c0-14.882813-12.066406-26.949219-26.949219-26.949219h-17.964844c-14.882812 0-26.945312 12.066406-26.945312 26.949219v8.980469h-8.984375c-4.960938 0-8.984375 4.023437-8.984375 8.984374 0 4.960938 4.023437 8.980469 8.984375 8.980469h35.929687v26.949219h-53.894531v269.472656h503.015625v-269.472656zm-395.226563 251.507812h-26.945312c-4.960938 0-8.984375-4.023437-8.984375-8.984374v-26.945313c0-4.960937 4.023437-8.984375 8.984375-8.984375 4.957031 0 8.980469 4.023438 8.980469 8.984375v17.964844h17.964843c4.960938 0 8.984375 4.019531 8.984375 8.980469 0 4.960937-4.023437 8.984374-8.984375 8.984374zm0-215.578124h-17.964843v17.964843c0 4.960938-4.023438 8.980469-8.980469 8.980469-4.960938 0-8.984375-4.019531-8.984375-8.980469v-26.949219c0-4.960937 4.023437-8.980468 8.984375-8.980468h26.945312c4.960938 0 8.984375 4.019531 8.984375 8.980468 0 4.960938-4.023437 8.984376-8.984375 8.984376zm250.277344 163.238281c-1.984375 2.152343-4.890625 3.207031-7.796875 2.820312l-78.863281-10.546875 8.378906 20.921875c4.695313 11.730469-1.007813 25.042969-12.738281 29.742188-10.421875 4.171875-22.332032.164062-28.113282-9.460938l-22.359374-37.519531-2.449219.539062-8.75 1.921876c-19.386719 4.242187-38.539063-8.03125-42.785157-27.414063-4.242187-19.386719 8.03125-38.539063 27.414063-42.785156l8.757813-1.921875 33.558593-7.355469 87.453125-55.449219c4.195313-2.652344 9.742188-1.398437 12.394532 2.792969.554687.882813.957031 1.855469 1.179687 2.875l26.949219 122.835937c.617187 2.871094-.214844 5.863282-2.230469 8.003907zm27.992187-41.671875c-3.195312 3.796875-8.863281 4.285156-12.664062 1.09375-3.796875-3.195313-4.285156-8.863282-1.089844-12.664063 9.585938-11.082031 8.375-27.839843-2.707031-37.425781-1.582031-1.367188-3.320313-2.546875-5.179687-3.503906-4.375-2.34375-6.023438-7.789063-3.683594-12.164063 2.34375-4.375 7.789062-6.023437 12.164062-3.683593 21.773438 11.429687 30.160156 38.34375 18.730469 60.121093-1.546875 2.941407-3.414063 5.699219-5.570313 8.226563zm31.824219 17.75c-2.96875 3.976562-8.597656 4.792968-12.574219 1.824218-3.820312-2.851562-4.746093-8.199218-2.105468-12.171874 20.015625-28.28125 13.3125-67.433594-14.96875-87.445313-.792969-.5625-1.59375-1.101563-2.410156-1.625-4.21875-2.609375-5.523438-8.144531-2.914063-12.363281s8.144531-5.523438 12.363281-2.914063c.085938.050781.167969.105469.25.160157 37.523438 24.027343 48.464844 73.929687 24.433594 111.453124-.667969 1.042969-1.359375 2.070313-2.074219 3.082032zm31.160157 17.964844c-2.546876 4.257812-8.0625 5.644531-12.320313 3.101562-4.257813-2.546875-5.644531-8.0625-3.101563-12.320312.136719-.226563.28125-.449219.4375-.660157 30.054688-45.011719 18.203126-105.832031-26.550781-136.265625-4.039062-2.882812-4.976562-8.492187-2.09375-12.53125 2.789063-3.910156 8.167969-4.933594 12.199219-2.316406 52.859375 35.949219 66.886719 107.769531 31.4375 160.964844zm89.902343 49.3125c0 4.960937-4.019531 8.984374-8.980469 8.984374h-26.949218c-4.960938 0-8.980469-4.023437-8.980469-8.984374 0-4.960938 4.019531-8.980469 8.980469-8.980469h17.964844v-17.964844c0-4.960937 4.023437-8.984375 8.984374-8.984375 4.960938 0 8.980469 4.023438 8.980469 8.984375zm0-188.628907c0 4.960938-4.019531 8.980469-8.980469 8.980469-4.960937 0-8.984374-4.019531-8.984374-8.980469v-17.964843h-17.964844c-4.960938 0-8.980469-4.023438-8.980469-8.984376 0-4.960937 4.019531-8.980468 8.980469-8.980468h26.949218c4.960938 0 8.980469 4.019531 8.980469 8.980468zm0 0"/><path d="m126.675781 247.132812c2.125 9.691407 11.707031 15.824219 21.398438 13.699219l-7.691407-35.09375c-9.691406 2.121094-15.828124 11.699219-13.707031 21.390625zm0 0"/><path d="m305.902344 440.140625h8.984375c13.875 0 26.945312-20.238281 26.945312-35.929687h-35.929687zm0 0"/><path d="m.5 368.28125h503.015625v17.964844h-503.015625zm0 0"/><path d="m157.9375 221.882812 17.546875-3.847656 7.695313 35.097656-17.546876 3.847657zm0 0"/><path d="m197.558594 269.546875-3.308594-.441406-12.574219 2.765625 19.285157 32.335937c1.578124 2.410157 4.804687 3.082031 7.214843 1.503907.632813-.414063 1.167969-.964844 1.570313-1.609376.632812-1.347656.632812-2.902343 0-4.25zm0 0"/><path d="m192.445312 211.574219 8.847657 40.347656 85.261719 11.398437-21.429688-97.773437zm0 0"/></svg>