<?xml version="1.0" encoding="utf-8"?>
<!-- Generator: Adobe Illustrator 21.0.0, SVG Export Plug-In . SVG Version: 6.00 Build 0)  -->
<svg version="1.1" id="Capa_1" xmlns="http://www.w3.org/2000/svg" xmlns:xlink="http://www.w3.org/1999/xlink" x="0px" y="0px"
	 viewBox="0 0 222.5 222.5" style="enable-background:new 0 0 222.5 222.5;" xml:space="preserve">
<g>
	<g>
		<path d="M210.1,33.6h-48.3v-9.4c0-2.6-2.1-4.7-4.7-4.7s-4.7,2.1-4.7,4.7v9.4h-48.3c-6.9,0-12.5,5.6-12.5,12.5v16.4l-6.5-2.2
			c-1.7-0.6-16.8-5.9-30.8-6.6l-1.9,3.7h-0.1l5.3,40.9l-6.2,10.9l-6.2-10.9l5.2-40.9h-0.1l-1.9-3.7c-14.5,0.7-30.2,6.4-30.9,6.6
			c-0.3,0.1-0.4,0.3-0.7,0.4c-0.5,0.2-1,0.5-1.4,0.9c-0.4,0.3-0.7,0.6-1,1c-0.3,0.4-0.6,0.8-0.9,1.2c-0.3,0.5-0.5,0.9-0.6,1.4
			c-0.1,0.3-0.3,0.5-0.3,0.8L0.2,122.2c-0.9,4.2,1.7,8.4,5.9,9.3c0.6,0.1,1.1,0.2,1.7,0.2c3.6,0,6.8-2.5,7.6-6.1l11.5-51.8
			c0.8-0.2,1.7-0.5,2.7-0.8v53.2l-6.2,77.1c-0.4,5.1,3.4,9.7,8.6,10.1c0.3,0,0.5,0,0.8,0c4.8,0,8.9-3.7,9.3-8.6l5.6-69.7
			c1.2,0.5,2.4,0.8,3.8,0.8c1.3,0,2.6-0.3,3.8-0.8l5.6,69.7c0.4,4.9,4.5,8.6,9.3,8.6c0.3,0,0.5,0,0.8,0c5.2-0.4,9-4.9,8.6-10.1
			l-6.2-77.1V73c4,1.1,6.6,2.1,6.7,2.1c0,0,0.1,0,0.1,0c0,0,0.1,0,0.1,0L91.6,79v42c0,6.9,5.6,12.5,12.5,12.5h22.7l-19.9,74.3
			c-0.7,2.5,0.8,5.1,3.3,5.7c0.4,0.1,0.8,0.2,1.2,0.2c2.1,0,4-1.4,4.5-3.5l20.6-76.7h15.9v54.4c0,2.6,2.1,4.7,4.7,4.7
			c2.6,0,4.7-2.1,4.7-4.7v-54.4h15.9l20.6,76.7c0.6,2.1,2.5,3.5,4.5,3.5c0.4,0,0.8,0,1.2-0.2c2.5-0.7,4-3.2,3.3-5.7l-19.9-74.3h22.7
			c6.9,0,12.5-5.6,12.5-12.5V46.1C222.5,39.2,216.9,33.6,210.1,33.6z M216.3,120.9c0,3.4-2.8,6.2-6.2,6.2h-106
			c-3.4,0-6.2-2.8-6.2-6.2V81l19.7,6.6c0.8,0.3,1.7,0.4,2.5,0.4c3.3,0,6.3-2.1,7.4-5.3c0.2-0.5,0.1-1.1,0.2-1.7l46.9-21.7
			c0.8-0.4,1.1-1.3,0.8-2.1c-0.4-0.8-1.3-1.1-2.1-0.8l-45.9,21.2c-0.7-2.2-2.4-4.1-4.8-4.9l-24.7-8.2V46.1c0-3.4,2.8-6.2,6.2-6.2
			h106c3.4,0,6.2,2.8,6.2,6.2L216.3,120.9L216.3,120.9L216.3,120.9z"/>
		<path d="M51.5,52.1c10.9,0,19.7-12.6,19.7-23.5c0-10.9-8.8-19.7-19.7-19.7c-10.9,0-19.7,8.8-19.7,19.7S40.6,52.1,51.5,52.1z"/>
		<path d="M166.3,89.1l3.2-2l-3.2-5.1l-3.2,2c-1.5-1.6-3.2-2.8-5.1-3.7l0.9-3.7l-5.8-1.3l-0.8,3.7c-2.1-0.1-4.2,0.3-6.2,1l-2-3.2
			L139,80l2,3.2c-1.6,1.5-2.8,3.2-3.7,5.1l-3.7-0.9l-1.3,5.8l3.7,0.9c-0.1,2.1,0.3,4.2,1,6.2l-3.2,2l3.2,5.1l3.2-2
			c1.5,1.6,3.2,2.8,5.1,3.7l-0.9,3.7l5.8,1.3l0.9-3.7c2.1,0.1,4.2-0.3,6.2-1l2,3.2l5.1-3.2l-2-3.2c1.6-1.5,2.8-3.2,3.7-5.1l3.7,0.9
			l1.3-5.8l-3.7-0.9C167.5,93.2,167.1,91.1,166.3,89.1z M157.4,103.8c-5,3.1-11.6,1.6-14.8-3.4c-3.1-5-1.6-11.6,3.4-14.8
			c5-3.1,11.6-1.6,14.8,3.4C163.9,94.1,162.4,100.7,157.4,103.8z"/>
		<path d="M198.6,79.6l-2.9,1c-0.9-1.5-2-2.8-3.3-3.8l1.3-2.7l-4.3-2.1l-1.3,2.7c-1.6-0.4-3.3-0.6-5-0.3l-1-2.9l-4.5,1.5l1,2.9
			c-1.5,0.8-2.8,2-3.8,3.3l-2.7-1.3l-2.1,4.3l2.7,1.3c-0.4,1.6-0.6,3.3-0.3,5l-2.9,1l1.5,4.5l2.9-1c0.8,1.5,2,2.8,3.3,3.8l-1.3,2.7
			l4.3,2.1l1.3-2.7c1.6,0.4,3.3,0.6,5,0.3l1,2.9l4.5-1.5l-1-2.9c1.5-0.8,2.8-2,3.8-3.3l2.7,1.3l2.1-4.3l-2.7-1.3
			c0.4-1.6,0.6-3.3,0.3-5l2.9-1L198.6,79.6z M187.6,94.9c-4.5,1.5-9.3-0.9-10.8-5.3c-1.5-4.5,0.9-9.3,5.3-10.8
			c4.5-1.5,9.3,0.9,10.8,5.3C194.5,88.5,192.1,93.4,187.6,94.9z"/>
	</g>
</g>
</svg>
