<svg height="464pt" viewBox="-8 0 464 464" width="464pt" xmlns="http://www.w3.org/2000/svg"><path d="m88 96.800781v30.398438l19.199219-15.199219zm0 0"/><path d="m136 16h-80c-4.800781 0-8 3.199219-8 8v8h96v-8c0-4.800781-3.199219-8-8-8zm0 0"/><path d="m48 200c0 4.800781 3.199219 8 8 8h80c4.800781 0 8-3.199219 8-8v-8h-96zm0 0"/><path d="m48 176h96v-128h-96zm24-112.800781 60.800781 48.800781-60.800781 48.800781zm0 0"/><path d="m128 264v160c0 4.800781 3.199219 8 8 8h8v-176h-8c-4.800781 0-8 3.199219-8 8zm0 0"/><path d="m344 456c0 4.800781 3.199219 8 8 8s8-3.199219 8-8v-72h-16zm0 0"/><path d="m160 428 136-57.601562v-60.796876l-136-50.402343zm0 0"/><path d="m376 312h-64v56h64c4.800781 0 8-3.199219 8-8v-40c0-4.800781-3.199219-8-8-8zm0 0"/><path d="m64 328h32v16h-32zm0 0"/><path d="m66.460938 269.777344 11.3125-11.316406 23.761718 23.761718-11.316406 11.3125zm0 0"/><path d="m66.460938 402.222656 23.757812-23.761718 11.3125 11.316406-23.757812 23.757812zm0 0"/><path d="m176 24h48v16h-48zm0 0"/><path d="m432 168v152c0 4.800781-3.199219 8-8 8h-8v16h8c13.601562 0 24-10.398438 24-24v-152zm0 0"/><path d="m16 320v-152h-16v152c0 13.601562 10.398438 24 24 24h24v-16h-24c-4.800781 0-8-3.199219-8-8zm0 0"/><path d="m233.601562 120c8.796876-38.398438 47.199219-63.199219 85.597657-54.398438 10.402343 2.398438 20.800781 7.199219 28.800781 14.398438l16.800781-16.800781c-40-34.398438-100.800781-29.597657-135.199219 11.199219-11.203124 12.800781-18.402343 28.800781-21.601562 46.402343h25.601562zm0 0"/><path d="m320 163.199219v26.402343c29.601562-8.800781 46.398438-40 37.601562-69.601562-1.601562-6.398438-4.800781-12-8.800781-17.601562l-17.601562 17.601562c9.601562 14.398438 4.800781 34.398438-11.199219 43.199219zm0 0"/><path d="m337.601562 91.199219c-24.800781-18.398438-60-13.597657-78.402343 11.199219-4 5.601562-7.199219 11.203124-8.800781 17.601562h26.402343c8.800781-15.199219 28-20.800781 43.199219-12 0 0 .800781 0 .800781.800781zm0 0"/><path d="m360 91.199219c24.800781 31.199219 20 76-11.199219 100.800781-8.800781 7.199219-18.402343 12-28.800781 14.398438v24.800781c52-8.800781 87.199219-58.398438 78.398438-110.398438-3.199219-16.800781-10.398438-32.800781-21.597657-46.402343zm0 0"/><path d="m400 0v40h40zm0 0"/><path d="m192 160.800781c0 48 39.199219 87.199219 87.199219 87.199219h8.800781v-96h-96zm0 0"/></svg>