<svg height="512pt" viewBox="0 0 512 512" width="512pt" xmlns="http://www.w3.org/2000/svg"><path d="m489.972656 381.726562h-34.261718l16.289062-16.289062v-38.976562c0-27.753907-22.578125-50.332032-50.332031-50.332032-27.753907 0-50.328125 22.578125-50.328125 50.332032v38.976562l16.289062 16.289062h-34.265625l-14.527343 14.53125-14.53125-14.53125h-34.261719l16.289062-16.289062v-38.976562c0-27.753907-22.578125-50.332032-50.332031-50.332032-27.75 0-50.328125 22.578125-50.328125 50.332032v38.976562l16.289063 16.289062h-34.265626l-14.53125 14.53125-14.527343-14.53125h-34.265625l16.289062-16.289062v-38.976562c0-27.753907-22.578125-50.332032-50.328125-50.332032-27.753906 0-50.332031 22.578125-50.332031 50.332032v38.976562l16.289062 16.289062h-34.261718l-22.027344 22.027344v108.246094h512v-108.246094zm-391.175781 69.914063-6.5625 8.8125h-3.8125l-6.5625-8.8125 5.269531-54.914063h6.398438zm-43.796875-125.179687c0-19.484376 15.851562-35.332032 35.332031-35.332032s35.328125 15.847656 35.328125 35.332032v32.765624l-22.5 22.5h-25.65625l-22.503906-22.5zm110.664062 170.539062h-21.515624v-60.609375h-15v60.609375h-77.632813v-60.609375h-15v60.609375h-21.515625v-87.03125l13.242188-13.242188h43.816406l-5.683594 59.238282 14.515625 19.488281h18.878906l14.511719-19.488281-5.683594-59.238282h43.824219l13.242187 13.242188zm123.25-100.273438-12.003906 27.535157-2.640625-27.535157zm-32.152343 73.742188h-1.523438l-7.800781-17.882812 5.359375-55.859376h6.402344l5.359375 55.859376zm-36.089844-144.007812c0-19.484376 15.847656-35.332032 35.328125-35.332032s35.332031 15.847656 35.332031 35.332032v32.765624l-22.503906 22.5h-25.652344l-22.503906-22.5zm17.058594 70.265624-2.644531 27.535157-12.003907-27.535157zm93.601562 100.273438h-21.515625v-60.609375h-15v60.609375h-77.632812v-60.609375h-15v60.609375h-21.511719v-87.03125l13.238281-13.242188h12.808594l25.417969 58.292969 13.277343 30.449219h21.167969l10.011719-22.960938 28.683594-65.78125h12.816406l13.238281 13.242188zm98.800781-45.359375-6.5625 8.8125h-3.8125l-6.5625-8.8125 5.269532-54.914063h6.398437zm-43.792968-125.179687c0-19.484376 15.847656-35.332032 35.328125-35.332032s35.332031 15.847656 35.332031 35.332032v32.765624l-22.503906 22.5h-25.65625l-22.5-22.5zm110.660156 170.539062h-21.515625v-60.609375h-15v60.609375h-77.632813v-60.609375h-15v60.609375h-21.515624v-87.03125l13.242187-13.242188h43.816406l-5.679687 59.238282 14.511718 19.488281h18.878907l14.511719-19.488281-5.683594-59.238282h43.828125l13.238281 13.242188zm0 0"/><path d="m257.664062 165c56.046876 0 100.183594-52.734375 102.035157-54.980469l3.933593-4.769531-3.933593-4.769531c-1.851563-2.246094-45.988281-54.980469-102.035157-54.980469-56.050781 0-100.183593 52.734375-102.035156 54.980469l-3.9375 4.769531 3.9375 4.769531c1.851563 2.246094 45.984375 54.980469 102.035156 54.980469zm6.015626-59.75c0 3.316406-2.699219 6.019531-6.015626 6.019531-3.320312 0-6.019531-2.699219-6.019531-6.019531s2.699219-6.019531 6.019531-6.019531c3.316407 0 6.015626 2.703125 6.015626 6.019531zm5.417968-23.117188c0-6.441406 5.242188-11.683593 11.683594-11.683593s11.683594 5.238281 11.683594 11.683593c0 6.441407-5.242188 11.683594-11.683594 11.683594s-11.683594-5.242187-11.683594-11.683594zm-4.675781-21.066406c-7.132813 5.554688-11.03125 14.3125-10.21875 23.449219-9.949219 1.65625-17.558594 10.324219-17.558594 20.734375 0 11.589844 9.429688 21.019531 21.019531 21.019531 10.410157 0 19.078126-7.613281 20.734376-17.558593 9.128906.8125 17.886718-3.074219 23.449218-10.21875 4.140625 27.203124-17.019531 51.449218-44.183594 51.449218-24.644531 0-44.691406-20.046875-44.691406-44.691406 0-27.175781 24.257813-48.324219 51.449219-44.183594zm79.382813 44.191406c-5.96875 6.285157-17.757813 17.667969-33.113282 27.382813 8.875-17.113281 8.894532-37.585937.03125-54.71875 15.328125 9.703125 27.113282 21.0625 33.082032 27.335937zm-139.171876-27.398437c-8.875 17.113281-8.890624 37.585937-.03125 54.71875-15.324218-9.703125-27.109374-21.0625-33.082031-27.335937 5.96875-6.285157 17.761719-17.667969 33.113281-27.382813zm0 0"/><path d="m125.660156 269.566406 59.070313-59.066406h37.515625l35.417968 54.773438 35.417969-54.773438h37.515625l59.066406 59.066406v-59.066406h27.21875v-210.5h-318.441406v210.5h27.21875zm-12.21875-74.066406v-180.5h288.441406v180.5h-27.21875v37.855469l-37.855468-37.855469h-51.890625l-27.253907 42.148438-27.257812-42.148438h-51.890625l-37.855469 37.855469v-37.855469zm0 0"/><path d="m266.867188 369.496094-10.605469-10.605469 10.035156-10.035156h15v6.210937zm14.429687-30.992188h-15v-12.042968c0-.574219-.046875-1.148438-.140625-1.707032l14.792969-2.476562c.230469 1.371094.347656 2.78125.347656 4.183594zm-17.613281-18.886718c-1.957032-2.195313-4.757813-3.453126-7.679688-3.453126v-15c7.191406 0 14.070313 3.085938 18.875 8.46875zm0 0"/><path d="m432.535156 369.496094-10.605468-10.605469 10.035156-10.035156h15v6.210937zm14.429688-30.992188h-15v-12.042968c0-.574219-.050782-1.148438-.140625-1.707032l14.792969-2.476562c.230468 1.371094.347656 2.78125.347656 4.183594zm-17.613282-18.886718c-1.960937-2.195313-4.757812-3.453126-7.683593-3.453126v-15c7.195312 0 14.074219 3.085938 18.875 8.46875zm0 0"/><path d="m101.199219 369.496094-10.605469-10.605469 10.035156-10.035156h15v6.210937zm14.429687-30.992188h-15v-12.042968c0-.574219-.050781-1.148438-.140625-1.707032l14.792969-2.476562c.230469 1.371094.347656 2.78125.347656 4.183594zm-17.613281-18.886718c-1.960937-2.195313-4.761719-3.453126-7.683594-3.453126v-15c7.191407 0 14.074219 3.085938 18.875 8.46875zm0 0"/><path d="m391.882812 154.167969h-15v-67.835938h15zm0-77.835938h-15v-15h15zm0-25h-15v-15h15zm0 0"/></svg>