<?xml version="1.0" encoding="utf-8"?>
<!-- Generator: Adobe Illustrator 21.0.0, SVG Export Plug-In . SVG Version: 6.00 Build 0)  -->
<svg version="1.1" id="Calque_1" xmlns="http://www.w3.org/2000/svg" xmlns:xlink="http://www.w3.org/1999/xlink" x="0px" y="0px"
	 viewBox="0 0 512 512" style="enable-background:new 0 0 512 512;" xml:space="preserve">
<path d="M456.6,263C456.6,262.9,456.6,262.9,456.6,263c-0.1-0.1-0.2-0.2-0.3-0.2c-4.8-3.7-10.7-5.7-16.8-5.7h-25v-17.5
	c0-4.1-3.4-7.5-7.5-7.5s-7.5,3.4-7.5,7.5v50.6l-150,85.7l-150-85.7V127.7c0-4.1-3.4-7.5-7.5-7.5s-7.5,3.4-7.5,7.5V257h-25
	c-6.1,0-12,2-16.8,5.7c-0.1,0.1-0.2,0.1-0.2,0.2c0,0,0,0,0,0c-6.6,5.2-10.4,13.1-10.4,21.6v200c0,8.4,3.8,16.3,10.4,21.5
	c4.8,3.8,10.9,6,17.1,6h380c6.1,0,12-2.1,16.8-5.8c0.1,0,0.1-0.1,0.2-0.1c0,0,0,0,0.1-0.1c6.6-5.2,10.4-13.1,10.4-21.5v-200
	C467,276.1,463.2,268.2,456.6,263z M414.5,272h16.8l-16.8,9.6V272z M84.5,281.6L67.7,272h16.8V281.6z M51.7,494.3
	c-3-2.4-4.7-6-4.7-9.8v-200c0-2.2,0.6-4.3,1.6-6.1l288.7,165c1.2,0.7,2.4,1,3.7,1c2.6,0,5.1-1.4,6.5-3.8c2.1-3.6,0.8-8.2-2.8-10.2
	l-80.2-45.8l185.8-106.1c1.1,1.8,1.6,3.9,1.6,6.1v200c0,2.2-0.6,4.3-1.6,6.1l-77.8-44.5c-3.6-2.1-8.2-0.8-10.2,2.8
	c-2.1,3.6-0.8,8.2,2.8,10.2l66.2,37.8H59.5C56.7,497,54,496.1,51.7,494.3z"/>
<path d="M473.6,91.4c2.4-3.6,5.4-8.1,5.4-13.9s-3-10.2-5.4-13.9c-1.2-1.8-2.4-3.6-2.7-4.8c-0.4-1.3-0.2-3.6-0.1-5.8
	c0.2-4.3,0.5-9.6-2.2-14.4c-2.8-4.8-7.6-7.2-11.4-9.2c-1.9-1-3.9-2-4.8-2.9c-0.9-0.9-1.9-2.9-2.9-4.8c-1.9-3.8-4.3-8.6-9.2-11.4
	c-4.8-2.8-10.1-2.5-14.4-2.2c-2.2,0.1-4.4,0.2-5.8-0.1c-1.2-0.3-3-1.5-4.8-2.7C411.7,3,407.2,0,401.5,0s-10.2,3-13.9,5.4
	c-1.8,1.2-3.6,2.4-4.8,2.7c-1.3,0.4-3.6,0.2-5.8,0.1c-4.3-0.2-9.6-0.5-14.4,2.2c-4.8,2.8-7.2,7.6-9.2,11.4c-1,1.9-2,3.9-2.9,4.8
	c-0.9,0.9-2.9,1.9-4.8,2.9c-3.8,1.9-8.6,4.3-11.4,9.2c-0.2,0.3-0.3,0.6-0.5,0.9H92c-4.1,0-7.5,3.4-7.5,7.5V96c0,4.1,3.4,7.5,7.5,7.5
	s7.5-3.4,7.5-7.5V54.6h232.7c0.1,1.7,0.1,3.2-0.2,4.3c-0.3,1.2-1.5,3-2.7,4.8c-2.4,3.6-5.4,8.1-5.4,13.9c0,5.7,3,10.2,5.4,13.9
	c1.2,1.8,2.4,3.6,2.7,4.8c0.4,1.3,0.2,3.6,0.1,5.8c-0.2,4.3-0.5,9.6,2.2,14.4c1.4,2.4,3.3,4.2,5.3,5.7h-54.4l-22.6-22.6
	c-2.2-2.2-5.3-3.2-8.4-2.7c-3.1,0.5-5.7,2.4-7.1,5.2l-10.3,20.2h-89.3c-4.1,0-7.5,3.4-7.5,7.5c0,4.1,3.4,7.5,7.5,7.5h81.6l-10.8,21
	h-70.9c-4.1,0-7.5,3.4-7.5,7.5c0,4.1,3.4,7.5,7.5,7.5h63.2l-10.8,21h-52.5c-4.1,0-7.5,3.4-7.5,7.5c0,4.1,3.4,7.5,7.5,7.5h41.3
	c-0.1,0.1-0.1,0.1-0.2,0.2l-36.5,36.5c-4.5,4.5-4.5,11.8-0.1,16.4c-4.6,6.5-7.2,14.2-7.2,22.4c0,10.3,4,20,11.3,27.2
	c7.3,7.3,16.9,11.3,27.2,11.3c8.1,0,15.9-2.5,22.4-7.2c2.3,2.2,5.2,3.3,8.1,3.3c3,0,6-1.1,8.3-3.4l2.3-2.3l26.5,26.5
	c4.4,4.4,10.2,6.6,15.9,6.6s11.5-2.2,15.9-6.6c4.2-4.2,6.6-9.9,6.6-15.9s-2.3-11.7-6.6-15.9l-26.5-26.5l2.4-2.4
	c1.4-1.4,2.4-3.2,3-5.1L366,220.6c2.8-1.4,4.7-4.1,5.2-7.2c0.5-3.1-0.5-6.2-2.7-8.4l-32.1-32.1h27.2c4.1,0,7.5-3.4,7.5-7.5
	c0-4.1-3.4-7.5-7.5-7.5h-42.2l-21-21h55.3c1.7,2.9,3.8,5.7,7.2,7.7c4.8,2.8,10.1,2.5,14.4,2.2c2.2-0.1,4.4-0.2,5.8,0.1
	c1.2,0.3,3,1.5,4.8,2.7c3.2,2.1,7.1,4.7,11.9,5.2V208c0,4.1,3.4,7.5,7.5,7.5c4.1,0,7.5-3.4,7.5-7.5v-57.8c0.3-0.2,0.6-0.4,0.9-0.6
	c1.8-1.2,3.6-2.4,4.8-2.7c1.3-0.4,3.6-0.2,5.8-0.1c4.3,0.2,9.6,0.5,14.4-2.2c4.8-2.8,7.3-7.6,9.2-11.4c1-1.9,2-3.9,2.9-4.8
	c0.9-0.9,2.9-1.9,4.8-2.9c3.8-1.9,8.6-4.3,11.4-9.2c2.8-4.8,2.5-10.1,2.2-14.4c-0.1-2.2-0.2-4.4,0.1-5.8
	C471.3,94.9,472.5,93.1,473.6,91.4z M166.7,301c-4.4-4.4-6.9-10.3-6.9-16.6c0-4.1,1-8,3-11.5l32,32c-3.5,2-7.4,3-11.5,3
	C177,307.9,171.1,305.5,166.7,301z M165,253.9l31.8-31.8l48.8,48.8l-31.8,31.8L165,253.9z M272.2,318.6c1.4,1.4,2.2,3.3,2.2,5.3
	s-0.8,3.9-2.2,5.3c-2.9,2.9-7.7,2.9-10.6,0L235,302.7l10.6-10.6L272.2,318.6z M256,260l-48.3-48.3l49.5-96.7l95.5,95.5L256,260z
	 M461.1,83.1c-1.7,2.6-3.7,5.6-4.6,9.1c-1,3.6-0.8,7.3-0.6,10.5c0.1,2.2,0.3,5.1-0.2,6c-0.6,1-3.2,2.3-5.2,3.3
	c-2.8,1.4-6.1,3.1-8.7,5.7c-2.6,2.6-4.3,5.9-5.7,8.7c-1,2-2.3,4.6-3.3,5.2c-0.9,0.5-3.9,0.4-6,0.2c-3.2-0.2-6.8-0.4-10.5,0.6
	c-3.5,0.9-6.5,2.9-9.1,4.6c-2,1.3-4.4,2.9-5.6,2.9s-3.6-1.6-5.6-2.9c-2.6-1.7-5.6-3.7-9.1-4.6c-2.2-0.6-4.3-0.7-6.4-0.7
	c-1.4,0-2.8,0.1-4.1,0.1c-2.2,0.1-5.1,0.3-6-0.2c-1-0.6-2.3-3.2-3.3-5.2c-1.4-2.8-3.1-6.1-5.7-8.7c-2.6-2.6-5.9-4.3-8.7-5.7
	c-2-1-4.6-2.3-5.2-3.3c-0.5-0.9-0.4-3.9-0.2-6c0.2-3.2,0.4-6.8-0.6-10.5c-0.9-3.5-2.9-6.5-4.6-9.1c-1.3-2-2.9-4.4-2.9-5.6
	c0-1.2,1.6-3.6,2.9-5.6c1.7-2.6,3.7-5.6,4.6-9.1c1-3.6,0.8-7.3,0.6-10.5c-0.1-1.4-0.2-3.1-0.1-4.4c0,0,0-0.1,0-0.1
	c0-0.7,0.1-1.3,0.3-1.6c0.6-1,3.2-2.3,5.2-3.3c2.8-1.4,6.1-3.1,8.7-5.7c2.6-2.6,4.3-5.9,5.7-8.7c1-2,2.3-4.6,3.3-5.2
	c0.9-0.5,3.9-0.4,6-0.2c3.2,0.2,6.8,0.4,10.5-0.6c3.5-0.9,6.5-2.9,9.1-4.6c2-1.3,4.4-2.9,5.6-2.9s3.6,1.6,5.6,2.9
	c2.6,1.7,5.6,3.7,9.1,4.6c3.6,1,7.3,0.8,10.5,0.6c2.2-0.1,5.1-0.3,6,0.2c1,0.6,2.3,3.2,3.3,5.2c1.4,2.8,3.1,6.1,5.7,8.7
	c2.6,2.6,5.9,4.3,8.7,5.7c2,1,4.6,2.3,5.2,3.3c0.5,0.9,0.4,3.9,0.2,6c-0.2,3.2-0.4,6.8,0.6,10.5c0.9,3.5,2.9,6.5,4.6,9.1
	c1.3,2,2.9,4.4,2.9,5.6C464,78.7,462.4,81.1,461.1,83.1z"/>
<path d="M386.6,55.1c0,4.1-3.4,7.5-7.5,7.5s-7.5-3.4-7.5-7.5s3.4-7.5,7.5-7.5S386.6,51,386.6,55.1z"/>
<path d="M431.4,99.9c0,4.1-3.4,7.5-7.5,7.5s-7.5-3.4-7.5-7.5s3.4-7.5,7.5-7.5S431.4,95.7,431.4,99.9z"/>
<path d="M418.9,49.5l-45.4,45.4c-2.9,2.9-2.9,7.7,0,10.6c1.5,1.5,3.4,2.2,5.3,2.2s3.8-0.7,5.3-2.2l45.4-45.4c2.9-2.9,2.9-7.7,0-10.6
	C426.6,46.6,421.8,46.6,418.9,49.5z"/>
</svg>
