<?xml version="1.0" encoding="utf-8"?>
<!-- Generator: Adobe Illustrator 21.0.0, SVG Export Plug-In . SVG Version: 6.00 Build 0)  -->
<svg version="1.1" xmlns="http://www.w3.org/2000/svg" xmlns:xlink="http://www.w3.org/1999/xlink" x="0px" y="0px"
	 viewBox="0 0 200.5 198.4" style="enable-background:new 0 0 200.5 198.4;" xml:space="preserve">
<style type="text/css">
	.st0{display:none;}
	.st1{fill:none;stroke:#010202;stroke-miterlimit:10;}
	.st2{fill:none;stroke:#000000;stroke-miterlimit:10;}
</style>
<g id="fleche">
	<g class="st0">
		<g>
			<path class="st1" d="M105.5,119c0,0.8-0.4,1.4-1.1,1.7c-0.7,0.3-1.4,0.2-1.9-0.3c-2.1-2.1-4.3-4.2-6.4-6.4
				c-0.1-0.1-0.1-0.2,0-0.3c0.8-0.8,1.5-1.5,2.3-2.3c0.1-0.1,0.2-0.1,0.3,0c2.1,2.1,4.3,4.3,6.4,6.4
				C105.4,118.1,105.5,118.5,105.5,119z"/>
			<path class="st1" d="M155.7,58.3c-0.1-1-0.5-1.8-1-2.6c-0.2-0.3-0.4-0.6-0.6-0.9c-0.3-0.5-0.4-1-0.4-1.5c0.1-0.7,0.1-1.3,0-2
				c0-1.3-0.6-2.5-1.6-3.3c-0.7-0.5-1.4-0.9-2.2-1.3c-0.5-0.2-0.9-0.6-1.1-1c-0.4-0.7-0.7-1.4-1.2-2.1c-0.5-0.6-1-1.1-1.7-1.5
				c-0.6-0.3-1.3-0.4-2-0.5c-0.7,0-1.5,0.1-2.2,0.1c-0.3,0-0.5-0.1-0.7-0.2c-0.4-0.2-0.8-0.5-1.1-0.7c-0.8-0.5-1.6-1-2.6-1.1
				c-0.4,0-0.8,0-1.2,0c-0.4,0.2-0.8,0.2-1.2,0.4c-0.8,0.4-1.4,0.9-2.1,1.3c-0.3,0.2-0.7,0.3-1.1,0.3c-0.7,0-1.4-0.1-2.1-0.1
				c-1.6,0-3,0.7-3.9,2.1c-0.4,0.6-0.7,1.2-1,1.8c-0.3,0.5-0.6,0.9-1.2,1.2c-0.3,0.1-0.6,0.3-0.8,0.4c-0.9,0.5-1.8,1.1-2.4,2
				c-0.1,0.2-0.3,0.3-0.5,0.3c-19.6,0-39.1,0-58.7,0c-1,0-2,0.7-2,2c0,3.9,0,7.8,0,11.6c0,0.2,0,0.4,0,0.6c0.2,0.9,1.1,1.6,2,1.5
				c1-0.2,1.7-0.9,1.7-1.9c0-3.2,0-6.4,0-9.7c0-0.3,0.1-0.4,0.4-0.4c18.7,0,37.5,0,56.2,0c0.1,0,0.1,0,0.2,0c0.1,0,0.2,0,0.2,0.2
				c0,0.5-0.1,1-0.4,1.5c-0.3,0.5-0.6,1-0.9,1.5c-1,1.6-1,3.3,0,4.9c0.3,0.5,0.6,1,0.9,1.5c0.3,0.4,0.4,0.8,0.4,1.3
				c0,0.6-0.1,1.2-0.1,1.9c0,1.1,0.3,2.1,1,3c0.2,0.3,0.5,0.5,0.8,0.8c-0.1,0-0.1,0-0.2,0c-4.3,0-8.6,0-12.9,0
				c-0.2,0-0.3-0.1-0.4-0.2c-1.8-1.8-3.5-3.5-5.3-5.3c-1.3-1.2-3.1-0.9-3.9,0.6c-0.8,1.5-1.6,3-2.3,4.6c-0.1,0.2-0.2,0.3-0.5,0.3
				c-7.1,0-14.3,0-21.4,0c-0.2,0-0.3,0-0.5,0c-1,0.2-1.6,1.1-1.4,2.1c0.1,0.9,0.9,1.6,1.9,1.6c6.5,0,13,0,19.5,0c0.1,0,0.2,0,0.4,0
				c0,0.1,0,0.1-0.1,0.1c-0.8,1.6-1.6,3.1-2.4,4.7c-0.1,0.2-0.2,0.3-0.5,0.3c-5.6,0-11.3,0-16.9,0c-0.2,0-0.3,0-0.5,0
				c-1,0.2-1.6,1.1-1.4,2.1c0.1,0.9,0.9,1.6,1.9,1.6c5,0,10,0,15.1,0c0.1,0,0.2,0,0.3,0c0,0.1-0.1,0.2-0.1,0.2
				c-0.8,1.5-1.6,3.1-2.4,4.6c-0.1,0.2-0.2,0.3-0.4,0.3c-4.1,0-8.3,0-12.4,0c-0.2,0-0.3,0-0.5,0c-1,0.2-1.6,1.1-1.5,2.1
				c0.1,0.9,0.9,1.6,1.9,1.6c3.2,0,6.4,0,9.7,0c0.1,0,0.2,0,0.3,0c-0.1,0.1-0.1,0.2-0.2,0.3c-2.9,2.9-5.8,5.8-8.6,8.6
				c-1.1,1.1-1.2,2.7-0.2,3.9c0.1,0.1,0.1,0.2,0,0.3c-1.5,2.2-1.9,4.6-1.4,7.2c0.8,4.2,4.5,7.4,8.8,7.6c2.1,0.1,4-0.4,5.7-1.6
				c0.1-0.1,0.2-0.1,0.4,0c1.2,1,2.8,0.9,3.9-0.2c0.2-0.2,0.4-0.4,0.6-0.6c0.1,0.1,0.2,0.2,0.2,0.3c2,2,4.1,4.1,6.1,6.1
				c1,1,2.2,1.6,3.6,1.7c1.7,0.1,3.3-0.4,4.5-1.7c2.2-2.3,2.1-5.6-0.1-7.8c-2.1-2.1-4.2-4.2-6.2-6.2c-0.1-0.1-0.2-0.2,0-0.4
				c0.5-0.4,0.9-0.9,1.1-1.6c0-0.1,0.1-0.1,0.2-0.1c0.8-0.4,1.6-0.8,2.4-1.2c0.2,0,0.3-0.1,0.4-0.1c1.3-0.7,2.6-1.3,3.8-2
				c1.5-0.8,3.1-1.6,4.7-2.4c2.6-1.3,5.1-2.6,7.7-3.9c2.1-1.1,4.2-2.2,6.3-3.2c0.1-0.1,0.3-0.1,0.4-0.2c0.8-0.6,1.2-1.4,1.1-2.4
				c-0.1-0.6-0.4-1.1-0.8-1.5c-2.5-2.4-4.9-4.9-7.4-7.4c-0.1-0.1-0.2-0.1-0.2-0.3c0.7,0,1.3,0,1.9,0c1.5,0,3,0,4.5,0
				c1.2,0,2.1-1.1,1.9-2.3c-0.2-1-0.9-1.5-1.9-1.5c-3.3,0-6.6,0-9.8,0c-0.3,0-0.5-0.1-0.7-0.3c-0.4-0.4-0.9-0.9-1.3-1.3
				c-1.1-1.1-2.2-2.2-3.4-3.4c2.3,0,4.6,0,6.9,0c2,0,4,0,6,0c0.3,0,0.4,0.1,0.6,0.3c0.6,0.9,1.3,1.6,2.4,1.9
				c0.8,0.2,1.6,0.3,2.4,0.2c0.1,0,0.2,0,0.4,0c1.6,0,1.2-0.1,2.6,0.8c0.8,0.5,1.6,1,2.5,1.2c0.2,0,0.2,0.1,0.2,0.3
				c0,0.1,0,0.2,0,0.4c0,4.1,0,8.2,0,12.3c0,0.8,0.4,1.4,1.2,1.8c0.7,0.3,1.5,0.1,2-0.4c0.4-0.4,0.6-1,0.6-1.6c0-4.4,0-8.9,0-13.3
				c0-0.1,0-0.2,0-0.4c0-0.2,0.1-0.3,0.2-0.4c0.6-0.4,1.2-0.7,1.9-0.6c0.2,0,0.3,0,0.5,0c0.1,0,0.2,0,0.3,0c0.5,0,1.1,0,1.6,0
				c1.1-0.1,2.1-0.6,2.8-1.5c0.5-0.6,0.9-1.4,1.3-2.1c0.3-0.7,0.8-1.2,1.6-1.5c0.5-0.2,0.9-0.5,1.4-0.8c0.4-0.3,0.9-0.6,1.2-1
				c0.7-0.9,1-1.8,1-3c0-0.2,0-0.4,0-0.7c0-0.3,0-0.6,0-0.8c0-0.1-0.1-0.2,0-0.4c-0.1-0.6,0.2-1.2,0.6-1.7c0.7-1,1.3-2,1.4-3.2
				c0-0.1,0-0.1,0-0.2C155.6,58.8,155.6,58.6,155.7,58.3C155.7,58.3,155.7,58.3,155.7,58.3z M78.8,113c-1.7-2-1.6-4.8-0.6-6.5
				c2.6,2.6,5.2,5.2,7.8,7.8C83.6,115.7,80.7,115.2,78.8,113z M98.3,106.2c-2.5,2.5-5,5-7.6,7.6c0,0,0,0-0.1,0.1
				c-0.1-0.1-0.1-0.2-0.2-0.2c-3.8-3.8-7.6-7.6-11.5-11.5c-0.2-0.2-0.2-0.3,0-0.4c2.5-2.4,4.9-4.9,7.4-7.4c0.1-0.1,0.2-0.2,0.4,0
				c3.9,3.9,7.7,7.7,11.6,11.6C98.4,106,98.5,106,98.3,106.2z M124.6,91.3c-1.4,0.7-2.9,1.5-4.4,2.2c-5.2,2.7-10.5,5.4-15.7,8
				c-1.1,0.6-2.2,1.1-3.3,1.7c-0.2,0.1-0.3,0.1-0.4-0.1c-3.8-3.8-7.6-7.6-11.4-11.4c-0.2-0.1-0.2-0.3-0.1-0.4
				c2.2-4.2,4.3-8.4,6.5-12.7c1.8-3.5,3.6-7,5.4-10.5c0-0.1,0.1-0.2,0.1-0.2C109.1,75.7,116.8,83.5,124.6,91.3z M151.8,59.1
				c-0.2,0.4-0.5,0.8-0.7,1.2c-1,1.3-1.3,2.8-1.1,4.5c0,0.4,0,0.8,0,1.2c0,0.3-0.1,0.6-0.4,0.7c-0.3,0.2-0.6,0.4-0.9,0.5
				c-1.7,0.7-2.8,1.9-3.5,3.6c-0.1,0.3-0.3,0.5-0.4,0.8c-0.2,0.4-0.5,0.6-1,0.6c-0.5,0-1,0-1.6-0.1c-1.2-0.1-2.3,0.2-3.3,0.8
				c-0.4,0.3-0.9,0.5-1.3,0.9c-0.6,0.4-1.1,0.4-1.7,0c-0.5-0.4-1.1-0.7-1.6-1c-0.9-0.5-1.9-0.7-3-0.6c-0.6,0-1.2,0.1-1.8,0.1
				c-0.3,0-0.5-0.1-0.7-0.4c-0.3-0.5-0.5-1-0.8-1.4c-0.6-1.3-1.6-2.2-2.9-2.9c-0.4-0.2-0.9-0.4-1.3-0.7c-0.3-0.2-0.4-0.4-0.4-0.7
				c0-0.2,0-0.4,0-0.6c0-0.7,0.1-1.4,0-2c-0.1-0.9-0.4-1.8-0.9-2.5c-0.3-0.5-0.6-1-0.9-1.5c-0.2-0.3-0.2-0.7,0-1
				c0.2-0.4,0.4-0.7,0.7-1.1c1-1.3,1.3-2.8,1.1-4.4c0-0.4,0-0.9,0-1.3c0-0.2,0.1-0.4,0.3-0.5c0.4-0.3,0.9-0.5,1.4-0.8
				c1.4-0.7,2.4-1.7,3.1-3.2c0.2-0.3,0.4-0.7,0.5-1c0.2-0.4,0.5-0.6,1-0.6c0.6,0,1.2,0.1,1.9,0.1c1.2,0,2.2-0.3,3.2-0.9
				c0.5-0.3,1-0.6,1.4-0.9c0.4-0.2,0.7-0.2,1.1,0c0.4,0.2,0.7,0.4,1.1,0.7c1.4,1,3,1.3,4.7,1.1c0.4,0,0.7-0.1,1.1,0
				c0.2,0,0.3,0.1,0.4,0.3c0.3,0.4,0.5,0.9,0.7,1.3c0.7,1.4,1.7,2.5,3.1,3.1c0.4,0.2,0.8,0.4,1.2,0.7c0.3,0.2,0.4,0.4,0.4,0.7
				c0,0.6,0,1.2-0.1,1.8c-0.1,1.3,0.2,2.4,0.9,3.5c0.3,0.5,0.7,1,1,1.6C152,58.6,152,58.8,151.8,59.1z"/>
			<path class="st1" d="M152.7,109c-0.1-0.1,0-0.2,0-0.3c0-0.1,0-0.3-0.1-0.4c-0.3-1.8-1.2-3.3-2.7-4.4c-1.1-0.8-2.3-1.2-3.7-1.3
				c-2,0-4,0-6.1,0c-0.1,0-0.2,0-0.3,0c0-0.1,0-0.2,0-0.3c0-1.3,0-2.6,0-3.9c0-1.4-1.5-2.2-2.7-1.6c-0.7,0.3-1,0.9-1,1.7
				c0,4,0,8.1,0,12.1c0,0.2-0.1,0.3-0.2,0.4c-0.5,0.2-0.9,0.5-1.3,0.7c-1,0.6-2.1,1.2-3.1,1.8c-0.7,0.4-1.5,0.8-2.2,1.3
				c-1.1,0.7-2.3,1.3-3.4,2c-0.9,0.5-1.8,1-2.7,1.5c-1.2,0.7-2.4,1.4-3.6,2.1c0,0-0.1,0.1-0.1,0.1c-6.6,3.8-13.2,7.5-19.8,11.3
				c-0.2,0.1-0.3,0.1-0.4,0c-12.1-6.9-24.1-13.8-36.2-20.7c-0.2-0.1-0.3-0.3-0.3-0.5c0-13.1,0-26.2,0-39.2c0-0.1,0-0.2,0-0.3
				c-0.1-1.2-1.2-2-2.4-1.7c-0.8,0.2-1.3,1-1.3,1.9c0,10.4,0,20.8,0,31.2c0,0.3-0.1,0.4-0.4,0.3c-1.9,0-3.8,0-5.7,0
				c-0.3,0-0.7,0-1,0.1c-3.2,0.5-5.6,3.1-5.8,6.3c0,0.1,0,0.2,0,0.2c0,16.4,0,32.7,0,49.1c0,0.1,0,0.2,0,0.3c0,0.3,0,0.6,0.1,0.9
				c0.6,3.2,3.4,5.6,6.7,5.6c31,0,62,0,93,0c0.3,0,0.6,0,1-0.1c1.6-0.3,3-1,4.1-2.2c1.2-1.3,1.7-2.8,1.7-4.5c0-16.3,0-32.6,0-48.9
				C152.7,109.3,152.7,109.2,152.7,109z M140,106.3c1.3,0,2.5,0,3.8,0.1c-1.3,0.7-2.6,1.5-3.9,2.2c0-0.8,0-1.5,0-2.2
				C139.9,106.4,139.9,106.3,140,106.3z M55.3,106.3c1.2,0,2.3,0,3.5,0c0.2,0,0.3,0,0.3,0.3c0,0.7,0,1.3,0,2
				c-1.3-0.8-2.6-1.5-3.9-2.2C55.2,106.3,55.3,106.3,55.3,106.3z M148.7,159.6c-0.1,0.2-0.1,0.2-0.3,0.1c-4.1-2.4-8.2-4.7-12.4-7.1
				c-2.1-1.2-4.3-2.4-6.4-3.7c-1.1-0.6-2.5-0.1-2.8,1.2c-0.2,0.8,0.2,1.6,0.9,2c2.2,1.3,4.4,2.5,6.6,3.8c3.1,1.7,6.1,3.5,9.2,5.2
				c0.1,0,0.2,0.1,0.3,0.2c-0.1,0-0.2,0-0.3,0c-30.1,0-60.3,0-90.4,0c-1.6,0-2.8-1-3.1-2.5c0-0.2,0-0.4,0-0.6c0-16.3,0-32.6,0-48.9
				c0-0.4,0.1-0.9,0.3-1.3c0.1-0.2,0.2-0.2,0.4-0.1c2.7,1.6,5.4,3.1,8.1,4.6c20.7,11.8,41.4,23.7,62.1,35.5c1,0.5,1.8,0.4,2.4-0.1
				c1-0.9,0.8-2.4-0.4-3c-2.2-1.3-4.4-2.5-6.6-3.8c-4.3-2.5-8.6-4.9-12.9-7.4c0.5-0.3,0.9-0.5,1.3-0.7c14.6-8.4,29.3-16.7,43.9-25.1
				c0.2-0.1,0.3-0.1,0.4,0.1c0.2,0.4,0.3,0.8,0.3,1.3c0,16.3,0,32.6,0,48.9C149,158.7,148.9,159.1,148.7,159.6z"/>
		</g>
		<path class="st1" d="M142.2,51.3c0.8,0,1.3,0.4,1.7,1.1c0.3,0.8,0.2,1.5-0.4,2.1c-0.5,0.6-1.1,1.1-1.6,1.6
			c-3.1,3.1-6.3,6.3-9.4,9.4c-0.9,0.9-2.2,0.8-2.9-0.2c-0.4-0.7-0.4-1.6,0.1-2.2c0.1-0.1,0.2-0.2,0.3-0.3c3.6-3.6,7.2-7.2,10.9-10.9
			C141.2,51.5,141.6,51.3,142.2,51.3z"/>
		<path class="st1" d="M131.2,55.1c-1,0-1.8-0.8-1.9-1.8c0-1,0.7-1.9,1.8-1.9c1,0,1.9,0.8,1.9,1.9C133,54.2,132.2,55.1,131.2,55.1z"
			/>
		<path class="st1" d="M144,64.2c0,1-0.8,1.8-1.8,1.8c-1,0-1.9-0.9-1.9-1.9c0-1,0.8-1.8,1.9-1.8C143.2,62.3,144,63.1,144,64.2z"/>
	</g>
</g>
<g id="circle">
	<circle class="st2" cx="101" cy="99.2" r="96.5"/>
</g>
</svg>
